<?xml version="1.0" encoding="UTF-8"?>
<svg id="Layer_1" data-name="Layer 1" xmlns="http://www.w3.org/2000/svg" viewBox="0 0 126.06 125.73">
  <defs>
    <style>
      .cls-1 {
        fill: #f5de50;
      }

      .cls-1, .cls-2 {
        stroke: #231f20;
        stroke-miterlimit: 10;
      }

      .cls-2 {
        fill: #d7df23;
        stroke-width: .25px;
      }
    </style>
  </defs>
  <rect class="cls-1" x=".5" y=".5" width="105.44" height="105.44" rx="16.48" ry="16.48"/>
  <g>
    <path d="M13.41,16.33v26.96h-3.48v-26.96h3.48Z"/>
    <path d="M42.22,31.46c-.2-3.76-.44-8.28-.4-11.64h-.12c-.92,3.16-2.04,6.52-3.4,10.24l-4.76,13.08h-2.64l-4.36-12.84c-1.28-3.8-2.36-7.28-3.12-10.48h-.08c-.08,3.36-.28,7.88-.52,11.92l-.72,11.56h-3.32l1.88-26.96h4.44l4.6,13.04c1.12,3.32,2.04,6.28,2.72,9.08h.12c.68-2.72,1.64-5.68,2.84-9.08l4.8-13.04h4.44l1.68,26.96h-3.4l-.68-11.84Z"/>
    <path d="M51.66,16.69c2.12-.32,4.64-.56,7.4-.56,5,0,8.56,1.16,10.92,3.36,2.4,2.2,3.8,5.32,3.8,9.68s-1.36,8-3.88,10.48c-2.52,2.52-6.68,3.88-11.92,3.88-2.48,0-4.56-.12-6.32-.32v-26.53ZM55.14,40.54c.88.16,2.16.2,3.52.2,7.44,0,11.48-4.16,11.48-11.44.04-6.36-3.56-10.4-10.92-10.4-1.8,0-3.16.16-4.08.36v21.28Z"/>
    <path d="M78.03,43.3c.08-1.32.16-3.28.16-5V14.89h3.48v12.16h.08c1.24-2.16,3.48-3.56,6.6-3.56,4.8,0,8.2,4,8.16,9.88,0,6.92-4.36,10.36-8.68,10.36-2.8,0-5.04-1.08-6.48-3.64h-.12l-.16,3.2h-3.04ZM81.67,35.54c0,.44.08.88.16,1.28.68,2.44,2.72,4.12,5.28,4.12,3.68,0,5.88-3,5.88-7.44,0-3.88-2-7.2-5.76-7.2-2.4,0-4.64,1.64-5.36,4.32-.08.4-.2.88-.2,1.44v3.48Z"/>
    <path d="M40.88,64.35v26.96h-3.48v-26.96h3.48Z"/>
    <path d="M46.96,64.71c2.12-.32,4.64-.56,7.4-.56,5,0,8.56,1.16,10.92,3.36,2.4,2.2,3.8,5.32,3.8,9.68s-1.36,8-3.88,10.48c-2.52,2.52-6.68,3.88-11.92,3.88-2.48,0-4.56-.12-6.32-.32v-26.52ZM50.44,88.55c.88.16,2.16.2,3.52.2,7.44,0,11.48-4.16,11.48-11.44.04-6.36-3.56-10.4-10.92-10.4-1.8,0-3.16.16-4.08.36v21.28Z"/>
  </g>
  <path class="cls-2" d="M118.87,99.58l7.05-2.26c-.33-1.83-.23-1.29-.55-3.12l-7.4.3c-.58-1.36-.59-1.4-1.17-2.76l5.37-5.09c-1.09-1.51-.76-1.06-1.85-2.57l-6.53,3.48c-1.11-.98-1.14-1-2.25-1.98l2.63-6.92c-1.64-.89-1.15-.62-2.78-1.51l-4.37,5.97c-1.42-.4-1.46-.41-2.88-.81l-.63-7.37c-1.86-.09-1.3-.06-3.17-.15l-1.35,7.28c-1.45.26-1.49.26-2.95.52l-3.77-6.37c-1.72.73-1.2.51-2.92,1.23l1.94,7.14c-1.2.86-1.23.89-2.43,1.75l-6.16-4.1c-1.23,1.4-.86.98-2.09,2.38l4.85,5.59c-.71,1.3-.72,1.33-1.43,2.63l-7.33-1.02c-.5,1.79-.35,1.26-.86,3.05l6.79,2.94c-.07,1.48-.07,1.52-.15,2.99l-7.05,2.26c.33,1.83.23,1.29.55,3.12l7.4-.3c.58,1.36.59,1.4,1.17,2.76l-5.37,5.09c1.09,1.51.76,1.06,1.85,2.57l6.53-3.48c1.11.98,1.14,1,2.25,1.98l-2.63,6.92c1.64.89,1.15.62,2.78,1.51l4.37-5.97c1.42.4,1.46.41,2.88.81l.63,7.37c1.86.09,1.3.06,3.17.15l1.35-7.28c1.45-.26,1.49-.27,2.95-.52l3.77,6.37c1.72-.73,1.2-.51,2.92-1.23l-1.94-7.14c1.2-.86,1.23-.89,2.43-1.75l6.16,4.1c1.23-1.4.86-.98,2.09-2.38l-4.85-5.59c.71-1.3.72-1.33,1.43-2.63l7.33,1.02c.5-1.79.35-1.26.86-3.05l-6.79-2.94c.07-1.48.07-1.52.15-2.99ZM100.68,113.88c-7.56,0-13.69-6.13-13.69-13.69s6.13-13.69,13.69-13.69,13.69,6.13,13.69,13.69-6.13,13.69-13.69,13.69Z"/>
</svg>